%TF.GenerationSoftware,KiCad,Pcbnew,(5.1.7-0-10_14)*%
%TF.CreationDate,2020-10-21T09:02:29+08:00*%
%TF.ProjectId,HallowBadges,48616c6c-6f77-4426-9164-6765732e6b69,rev?*%
%TF.SameCoordinates,Original*%
%TF.FileFunction,Legend,Bot*%
%TF.FilePolarity,Positive*%
%FSLAX46Y46*%
G04 Gerber Fmt 4.6, Leading zero omitted, Abs format (unit mm)*
G04 Created by KiCad (PCBNEW (5.1.7-0-10_14)) date 2020-10-21 09:02:29*
%MOMM*%
%LPD*%
G01*
G04 APERTURE LIST*
%ADD10C,0.200000*%
%ADD11C,0.120000*%
%ADD12C,0.150000*%
G04 APERTURE END LIST*
D10*
X133992857Y-132053571D02*
X133992857Y-130553571D01*
X133992857Y-131267857D02*
X133135714Y-131267857D01*
X133135714Y-132053571D02*
X133135714Y-130553571D01*
X131778571Y-132053571D02*
X131778571Y-131267857D01*
X131850000Y-131125000D01*
X131992857Y-131053571D01*
X132278571Y-131053571D01*
X132421428Y-131125000D01*
X131778571Y-131982142D02*
X131921428Y-132053571D01*
X132278571Y-132053571D01*
X132421428Y-131982142D01*
X132492857Y-131839285D01*
X132492857Y-131696428D01*
X132421428Y-131553571D01*
X132278571Y-131482142D01*
X131921428Y-131482142D01*
X131778571Y-131410714D01*
X130850000Y-132053571D02*
X130992857Y-131982142D01*
X131064285Y-131839285D01*
X131064285Y-130553571D01*
X130064285Y-132053571D02*
X130207142Y-131982142D01*
X130278571Y-131839285D01*
X130278571Y-130553571D01*
X129278571Y-132053571D02*
X129421428Y-131982142D01*
X129492857Y-131910714D01*
X129564285Y-131767857D01*
X129564285Y-131339285D01*
X129492857Y-131196428D01*
X129421428Y-131125000D01*
X129278571Y-131053571D01*
X129064285Y-131053571D01*
X128921428Y-131125000D01*
X128850000Y-131196428D01*
X128778571Y-131339285D01*
X128778571Y-131767857D01*
X128850000Y-131910714D01*
X128921428Y-131982142D01*
X129064285Y-132053571D01*
X129278571Y-132053571D01*
X128278571Y-131053571D02*
X127992857Y-132053571D01*
X127707142Y-131339285D01*
X127421428Y-132053571D01*
X127135714Y-131053571D01*
X126064285Y-131267857D02*
X125850000Y-131339285D01*
X125778571Y-131410714D01*
X125707142Y-131553571D01*
X125707142Y-131767857D01*
X125778571Y-131910714D01*
X125850000Y-131982142D01*
X125992857Y-132053571D01*
X126564285Y-132053571D01*
X126564285Y-130553571D01*
X126064285Y-130553571D01*
X125921428Y-130625000D01*
X125850000Y-130696428D01*
X125778571Y-130839285D01*
X125778571Y-130982142D01*
X125850000Y-131125000D01*
X125921428Y-131196428D01*
X126064285Y-131267857D01*
X126564285Y-131267857D01*
X124421428Y-132053571D02*
X124421428Y-131267857D01*
X124492857Y-131125000D01*
X124635714Y-131053571D01*
X124921428Y-131053571D01*
X125064285Y-131125000D01*
X124421428Y-131982142D02*
X124564285Y-132053571D01*
X124921428Y-132053571D01*
X125064285Y-131982142D01*
X125135714Y-131839285D01*
X125135714Y-131696428D01*
X125064285Y-131553571D01*
X124921428Y-131482142D01*
X124564285Y-131482142D01*
X124421428Y-131410714D01*
X123064285Y-132053571D02*
X123064285Y-130553571D01*
X123064285Y-131982142D02*
X123207142Y-132053571D01*
X123492857Y-132053571D01*
X123635714Y-131982142D01*
X123707142Y-131910714D01*
X123778571Y-131767857D01*
X123778571Y-131339285D01*
X123707142Y-131196428D01*
X123635714Y-131125000D01*
X123492857Y-131053571D01*
X123207142Y-131053571D01*
X123064285Y-131125000D01*
X121707142Y-131053571D02*
X121707142Y-132267857D01*
X121778571Y-132410714D01*
X121850000Y-132482142D01*
X121992857Y-132553571D01*
X122207142Y-132553571D01*
X122350000Y-132482142D01*
X121707142Y-131982142D02*
X121850000Y-132053571D01*
X122135714Y-132053571D01*
X122278571Y-131982142D01*
X122350000Y-131910714D01*
X122421428Y-131767857D01*
X122421428Y-131339285D01*
X122350000Y-131196428D01*
X122278571Y-131125000D01*
X122135714Y-131053571D01*
X121850000Y-131053571D01*
X121707142Y-131125000D01*
X120421428Y-131982142D02*
X120564285Y-132053571D01*
X120850000Y-132053571D01*
X120992857Y-131982142D01*
X121064285Y-131839285D01*
X121064285Y-131267857D01*
X120992857Y-131125000D01*
X120850000Y-131053571D01*
X120564285Y-131053571D01*
X120421428Y-131125000D01*
X120350000Y-131267857D01*
X120350000Y-131410714D01*
X121064285Y-131553571D01*
X119778571Y-131982142D02*
X119635714Y-132053571D01*
X119350000Y-132053571D01*
X119207142Y-131982142D01*
X119135714Y-131839285D01*
X119135714Y-131767857D01*
X119207142Y-131625000D01*
X119350000Y-131553571D01*
X119564285Y-131553571D01*
X119707142Y-131482142D01*
X119778571Y-131339285D01*
X119778571Y-131267857D01*
X119707142Y-131125000D01*
X119564285Y-131053571D01*
X119350000Y-131053571D01*
X119207142Y-131125000D01*
X134707142Y-134503571D02*
X134707142Y-133503571D01*
X134707142Y-133646428D02*
X134635714Y-133575000D01*
X134492857Y-133503571D01*
X134278571Y-133503571D01*
X134135714Y-133575000D01*
X134064285Y-133717857D01*
X134064285Y-134503571D01*
X134064285Y-133717857D02*
X133992857Y-133575000D01*
X133850000Y-133503571D01*
X133635714Y-133503571D01*
X133492857Y-133575000D01*
X133421428Y-133717857D01*
X133421428Y-134503571D01*
X132064285Y-134503571D02*
X132064285Y-133717857D01*
X132135714Y-133575000D01*
X132278571Y-133503571D01*
X132564285Y-133503571D01*
X132707142Y-133575000D01*
X132064285Y-134432142D02*
X132207142Y-134503571D01*
X132564285Y-134503571D01*
X132707142Y-134432142D01*
X132778571Y-134289285D01*
X132778571Y-134146428D01*
X132707142Y-134003571D01*
X132564285Y-133932142D01*
X132207142Y-133932142D01*
X132064285Y-133860714D01*
X131350000Y-134503571D02*
X131350000Y-133003571D01*
X131207142Y-133932142D02*
X130778571Y-134503571D01*
X130778571Y-133503571D02*
X131350000Y-134075000D01*
X129564285Y-134432142D02*
X129707142Y-134503571D01*
X129992857Y-134503571D01*
X130135714Y-134432142D01*
X130207142Y-134289285D01*
X130207142Y-133717857D01*
X130135714Y-133575000D01*
X129992857Y-133503571D01*
X129707142Y-133503571D01*
X129564285Y-133575000D01*
X129492857Y-133717857D01*
X129492857Y-133860714D01*
X130207142Y-134003571D01*
X128850000Y-134503571D02*
X128850000Y-133503571D01*
X128850000Y-133789285D02*
X128778571Y-133646428D01*
X128707142Y-133575000D01*
X128564285Y-133503571D01*
X128421428Y-133503571D01*
X127921428Y-134503571D02*
X127921428Y-133503571D01*
X127921428Y-133003571D02*
X127992857Y-133075000D01*
X127921428Y-133146428D01*
X127850000Y-133075000D01*
X127921428Y-133003571D01*
X127921428Y-133146428D01*
X127278571Y-134432142D02*
X127135714Y-134503571D01*
X126850000Y-134503571D01*
X126707142Y-134432142D01*
X126635714Y-134289285D01*
X126635714Y-134217857D01*
X126707142Y-134075000D01*
X126850000Y-134003571D01*
X127064285Y-134003571D01*
X127207142Y-133932142D01*
X127278571Y-133789285D01*
X127278571Y-133717857D01*
X127207142Y-133575000D01*
X127064285Y-133503571D01*
X126850000Y-133503571D01*
X126707142Y-133575000D01*
X126207142Y-133503571D02*
X125635714Y-133503571D01*
X125992857Y-133003571D02*
X125992857Y-134289285D01*
X125921428Y-134432142D01*
X125778571Y-134503571D01*
X125635714Y-134503571D01*
X125135714Y-134503571D02*
X125135714Y-133503571D01*
X125135714Y-133003571D02*
X125207142Y-133075000D01*
X125135714Y-133146428D01*
X125064285Y-133075000D01*
X125135714Y-133003571D01*
X125135714Y-133146428D01*
X123778571Y-134432142D02*
X123921428Y-134503571D01*
X124207142Y-134503571D01*
X124350000Y-134432142D01*
X124421428Y-134360714D01*
X124492857Y-134217857D01*
X124492857Y-133789285D01*
X124421428Y-133646428D01*
X124350000Y-133575000D01*
X124207142Y-133503571D01*
X123921428Y-133503571D01*
X123778571Y-133575000D01*
X123135714Y-134360714D02*
X123064285Y-134432142D01*
X123135714Y-134503571D01*
X123207142Y-134432142D01*
X123135714Y-134360714D01*
X123135714Y-134503571D01*
X121778571Y-134432142D02*
X121921428Y-134503571D01*
X122207142Y-134503571D01*
X122350000Y-134432142D01*
X122421428Y-134360714D01*
X122492857Y-134217857D01*
X122492857Y-133789285D01*
X122421428Y-133646428D01*
X122350000Y-133575000D01*
X122207142Y-133503571D01*
X121921428Y-133503571D01*
X121778571Y-133575000D01*
X120921428Y-134503571D02*
X121064285Y-134432142D01*
X121135714Y-134360714D01*
X121207142Y-134217857D01*
X121207142Y-133789285D01*
X121135714Y-133646428D01*
X121064285Y-133575000D01*
X120921428Y-133503571D01*
X120707142Y-133503571D01*
X120564285Y-133575000D01*
X120492857Y-133646428D01*
X120421428Y-133789285D01*
X120421428Y-134217857D01*
X120492857Y-134360714D01*
X120564285Y-134432142D01*
X120707142Y-134503571D01*
X120921428Y-134503571D01*
X119778571Y-134503571D02*
X119778571Y-133503571D01*
X119778571Y-133646428D02*
X119707142Y-133575000D01*
X119564285Y-133503571D01*
X119350000Y-133503571D01*
X119207142Y-133575000D01*
X119135714Y-133717857D01*
X119135714Y-134503571D01*
X119135714Y-133717857D02*
X119064285Y-133575000D01*
X118921428Y-133503571D01*
X118707142Y-133503571D01*
X118564285Y-133575000D01*
X118492857Y-133717857D01*
X118492857Y-134503571D01*
D11*
%TO.C,BT1*%
X167868945Y-122145763D02*
X165706921Y-130225871D01*
X165706921Y-130225871D02*
X159655170Y-135303893D01*
X159655170Y-135303893D02*
X151360687Y-135997836D01*
X157682087Y-110394469D02*
X152549589Y-114701145D01*
X141518549Y-123957287D02*
X146651047Y-119650610D01*
X162174112Y-115436711D02*
X165851125Y-112351330D01*
X165851125Y-112351330D02*
X169386457Y-116564575D01*
X169386457Y-116564575D02*
X165709444Y-119649955D01*
X149239488Y-133469889D02*
X145562475Y-136555270D01*
X145562475Y-136555270D02*
X142027143Y-132342025D01*
X142027143Y-132342025D02*
X145704156Y-129256645D01*
X152545879Y-114702348D02*
G75*
G03*
X146651047Y-119650610I3160921J-9750952D01*
G01*
%TO.C,J1*%
X171541700Y-87353100D02*
X172561700Y-87353100D01*
X171541700Y-82153100D02*
X172561700Y-82153100D01*
X169001700Y-87353100D02*
X170021700Y-87353100D01*
X169001700Y-82153100D02*
X170021700Y-82153100D01*
X174081700Y-87353100D02*
X174651700Y-87353100D01*
X174081700Y-82153100D02*
X174651700Y-82153100D01*
X166911700Y-87353100D02*
X167481700Y-87353100D01*
X166911700Y-82153100D02*
X167481700Y-82153100D01*
X167481700Y-80713100D02*
X167481700Y-82153100D01*
X174651700Y-82153100D02*
X174651700Y-87353100D01*
X166911700Y-82153100D02*
X166911700Y-87353100D01*
%TO.C,Q1*%
X164192400Y-110628200D02*
X165652400Y-110628200D01*
X164192400Y-107468200D02*
X166352400Y-107468200D01*
X164192400Y-107468200D02*
X164192400Y-108398200D01*
X164192400Y-110628200D02*
X164192400Y-109698200D01*
%TO.C,R1*%
X149623652Y-111639576D02*
X149286170Y-111943447D01*
X148640030Y-110547153D02*
X148302548Y-110851024D01*
%TO.C,R2*%
X143890043Y-113987739D02*
X143496757Y-114214803D01*
X144625043Y-115260797D02*
X144231757Y-115487861D01*
%TO.C,R3*%
X166998636Y-100185200D02*
X167452764Y-100185200D01*
X166998636Y-101655200D02*
X167452764Y-101655200D01*
%TO.C,R4*%
X165636600Y-104792164D02*
X165636600Y-104338036D01*
X164166600Y-104792164D02*
X164166600Y-104338036D01*
%TO.C,U1*%
X172694000Y-106406600D02*
X172694000Y-109856600D01*
X172694000Y-106406600D02*
X172694000Y-104456600D01*
X167574000Y-106406600D02*
X167574000Y-108356600D01*
X167574000Y-106406600D02*
X167574000Y-104456600D01*
%TO.C,BT1*%
D12*
X163768478Y-133037535D02*
X163689652Y-133165840D01*
X163683783Y-133232927D01*
X163708522Y-133336493D01*
X163800349Y-133445927D01*
X163898045Y-133488275D01*
X163965133Y-133494145D01*
X164068698Y-133469405D01*
X164360525Y-133224533D01*
X163717737Y-132458489D01*
X163462389Y-132672752D01*
X163420041Y-132770448D01*
X163414172Y-132837535D01*
X163438911Y-132941101D01*
X163500129Y-133014057D01*
X163597825Y-133056405D01*
X163664913Y-133062274D01*
X163768478Y-133037535D01*
X164023826Y-132823272D01*
X163061127Y-133009450D02*
X162623388Y-133376757D01*
X163485045Y-133959148D02*
X162842258Y-133193103D01*
X162609566Y-134693762D02*
X163047306Y-134326455D01*
X162828436Y-134510109D02*
X162185648Y-133744064D01*
X162350432Y-133792281D01*
X162484606Y-133804020D01*
X162588172Y-133779280D01*
%TO.C,J1*%
X165364080Y-84419766D02*
X166078366Y-84419766D01*
X166221223Y-84372147D01*
X166316461Y-84276909D01*
X166364080Y-84134052D01*
X166364080Y-84038814D01*
X166364080Y-85419766D02*
X166364080Y-84848338D01*
X166364080Y-85134052D02*
X165364080Y-85134052D01*
X165506938Y-85038814D01*
X165602176Y-84943576D01*
X165649795Y-84848338D01*
%TO.C,Q1*%
X163849019Y-107289261D02*
X163801400Y-107194023D01*
X163706161Y-107098785D01*
X163563304Y-106955928D01*
X163515685Y-106860690D01*
X163515685Y-106765452D01*
X163753780Y-106813071D02*
X163706161Y-106717833D01*
X163610923Y-106622595D01*
X163420447Y-106574976D01*
X163087114Y-106574976D01*
X162896638Y-106622595D01*
X162801400Y-106717833D01*
X162753780Y-106813071D01*
X162753780Y-107003547D01*
X162801400Y-107098785D01*
X162896638Y-107194023D01*
X163087114Y-107241642D01*
X163420447Y-107241642D01*
X163610923Y-107194023D01*
X163706161Y-107098785D01*
X163753780Y-107003547D01*
X163753780Y-106813071D01*
X163753780Y-108194023D02*
X163753780Y-107622595D01*
X163753780Y-107908309D02*
X162753780Y-107908309D01*
X162896638Y-107813071D01*
X162991876Y-107717833D01*
X163039495Y-107622595D01*
%TO.C,R1*%
X148285593Y-110243773D02*
X148214674Y-109666851D01*
X148710247Y-109861413D02*
X148041116Y-109118268D01*
X147758014Y-109373175D01*
X147719101Y-109472290D01*
X147715577Y-109539541D01*
X147743916Y-109642180D01*
X147839506Y-109748343D01*
X147938620Y-109787256D01*
X148005872Y-109790780D01*
X148108511Y-109762441D01*
X148391613Y-109507534D01*
X147577836Y-110881041D02*
X148002490Y-110498680D01*
X147790163Y-110689860D02*
X147121032Y-109946716D01*
X147287398Y-109989152D01*
X147421901Y-109996201D01*
X147524540Y-109967862D01*
%TO.C,R2*%
X143606428Y-113617298D02*
X143657007Y-113038238D01*
X144101299Y-113331583D02*
X143601299Y-112465558D01*
X143271385Y-112656034D01*
X143212716Y-112744892D01*
X143195286Y-112809941D01*
X143201666Y-112916229D01*
X143273094Y-113039947D01*
X143361953Y-113098616D01*
X143427001Y-113116046D01*
X143533290Y-113109666D01*
X143863204Y-112919190D01*
X142824132Y-113024227D02*
X142759083Y-113006797D01*
X142652795Y-113013177D01*
X142446599Y-113132225D01*
X142387930Y-113221083D01*
X142370500Y-113286132D01*
X142376880Y-113392420D01*
X142424499Y-113474898D01*
X142537166Y-113574807D01*
X143317752Y-113783964D01*
X142781641Y-114093488D01*
%TO.C,R3*%
X167392366Y-99721580D02*
X167725700Y-99245390D01*
X167963795Y-99721580D02*
X167963795Y-98721580D01*
X167582842Y-98721580D01*
X167487604Y-98769200D01*
X167439985Y-98816819D01*
X167392366Y-98912057D01*
X167392366Y-99054914D01*
X167439985Y-99150152D01*
X167487604Y-99197771D01*
X167582842Y-99245390D01*
X167963795Y-99245390D01*
X167059033Y-98721580D02*
X166439985Y-98721580D01*
X166773319Y-99102533D01*
X166630461Y-99102533D01*
X166535223Y-99150152D01*
X166487604Y-99197771D01*
X166439985Y-99293009D01*
X166439985Y-99531104D01*
X166487604Y-99626342D01*
X166535223Y-99673961D01*
X166630461Y-99721580D01*
X166916176Y-99721580D01*
X167011414Y-99673961D01*
X167059033Y-99626342D01*
%TO.C,R4*%
X163779180Y-104360333D02*
X163302990Y-104027000D01*
X163779180Y-103788904D02*
X162779180Y-103788904D01*
X162779180Y-104169857D01*
X162826800Y-104265095D01*
X162874419Y-104312714D01*
X162969657Y-104360333D01*
X163112514Y-104360333D01*
X163207752Y-104312714D01*
X163255371Y-104265095D01*
X163302990Y-104169857D01*
X163302990Y-103788904D01*
X163112514Y-105217476D02*
X163779180Y-105217476D01*
X162731561Y-104979380D02*
X163445847Y-104741285D01*
X163445847Y-105360333D01*
%TO.C,U1*%
X173205880Y-108095795D02*
X174015404Y-108095795D01*
X174110642Y-108143414D01*
X174158261Y-108191033D01*
X174205880Y-108286271D01*
X174205880Y-108476747D01*
X174158261Y-108571985D01*
X174110642Y-108619604D01*
X174015404Y-108667223D01*
X173205880Y-108667223D01*
X174205880Y-109667223D02*
X174205880Y-109095795D01*
X174205880Y-109381509D02*
X173205880Y-109381509D01*
X173348738Y-109286271D01*
X173443976Y-109191033D01*
X173491595Y-109095795D01*
%TD*%
M02*
