%FSLAX45Y45*%
G04 Gerber Fmt 4.5, Leading zero omitted, Abs format (unit mm)*
G04 Created by KiCad (PCBNEW (5.1.7-0-10_14)) date 2020-10-21 09:02:22*
%MOMM*%
%LPD*%
G01*
G04 APERTURE LIST*
%ADD10C,0.200000*%
%ADD11C,0.300000*%
G04 APERTURE END LIST*
D10*
D11*
X9381792Y-15244658D02*
X9381792Y-14944658D01*
X9453221Y-14944658D01*
X9496078Y-14958944D01*
X9524650Y-14987515D01*
X9538935Y-15016087D01*
X9553221Y-15073230D01*
X9553221Y-15116087D01*
X9538935Y-15173230D01*
X9524650Y-15201801D01*
X9496078Y-15230373D01*
X9453221Y-15244658D01*
X9381792Y-15244658D01*
X9681792Y-15244658D02*
X9681792Y-15044658D01*
X9681792Y-15101801D02*
X9696078Y-15073230D01*
X9710364Y-15058944D01*
X9738935Y-15044658D01*
X9767507Y-15044658D01*
X9867507Y-15244658D02*
X9867507Y-15044658D01*
X9867507Y-14944658D02*
X9853221Y-14958944D01*
X9867507Y-14973230D01*
X9881792Y-14958944D01*
X9867507Y-14944658D01*
X9867507Y-14973230D01*
X10053221Y-15244658D02*
X10024650Y-15230373D01*
X10010364Y-15201801D01*
X10010364Y-14944658D01*
X10210364Y-15244658D02*
X10181792Y-15230373D01*
X10167507Y-15201801D01*
X10167507Y-14944658D01*
X10553221Y-15244658D02*
X10553221Y-14944658D01*
X10653221Y-15158944D01*
X10753221Y-14944658D01*
X10753221Y-15244658D01*
X11024650Y-15244658D02*
X11024650Y-15087515D01*
X11010364Y-15058944D01*
X10981792Y-15044658D01*
X10924650Y-15044658D01*
X10896078Y-15058944D01*
X11024650Y-15230373D02*
X10996078Y-15244658D01*
X10924650Y-15244658D01*
X10896078Y-15230373D01*
X10881792Y-15201801D01*
X10881792Y-15173230D01*
X10896078Y-15144658D01*
X10924650Y-15130373D01*
X10996078Y-15130373D01*
X11024650Y-15116087D01*
X11167507Y-15044658D02*
X11167507Y-15344658D01*
X11167507Y-15058944D02*
X11196078Y-15044658D01*
X11253221Y-15044658D01*
X11281792Y-15058944D01*
X11296078Y-15073230D01*
X11310364Y-15101801D01*
X11310364Y-15187515D01*
X11296078Y-15216087D01*
X11281792Y-15230373D01*
X11253221Y-15244658D01*
X11196078Y-15244658D01*
X11167507Y-15230373D01*
X11438935Y-15216087D02*
X11453221Y-15230373D01*
X11438935Y-15244658D01*
X11424650Y-15230373D01*
X11438935Y-15216087D01*
X11438935Y-15244658D01*
X11438935Y-15058944D02*
X11453221Y-15073230D01*
X11438935Y-15087515D01*
X11424650Y-15073230D01*
X11438935Y-15058944D01*
X11438935Y-15087515D01*
M02*
