%TF.GenerationSoftware,KiCad,Pcbnew,(5.1.7-0-10_14)*%
%TF.CreationDate,2020-10-21T09:02:29+08:00*%
%TF.ProjectId,HallowBadges,48616c6c-6f77-4426-9164-6765732e6b69,rev?*%
%TF.SameCoordinates,Original*%
%TF.FileFunction,Copper,L1,Top*%
%TF.FilePolarity,Positive*%
%FSLAX46Y46*%
G04 Gerber Fmt 4.6, Leading zero omitted, Abs format (unit mm)*
G04 Created by KiCad (PCBNEW (5.1.7-0-10_14)) date 2020-10-21 09:02:29*
%MOMM*%
%LPD*%
G01*
G04 APERTURE LIST*
%TA.AperFunction,EtchedComponent*%
%ADD10C,0.010000*%
%TD*%
%TA.AperFunction,ViaPad*%
%ADD11C,0.800000*%
%TD*%
G04 APERTURE END LIST*
D10*
%TO.C,Ref\u002A\u002A*%
G36*
X189411859Y-58563086D02*
G01*
X189474671Y-58603953D01*
X189528683Y-58643704D01*
X189584850Y-58688489D01*
X189515258Y-58834740D01*
X188945804Y-60072307D01*
X188412148Y-61316900D01*
X187913499Y-62571060D01*
X187449066Y-63837326D01*
X187018057Y-65118241D01*
X186619680Y-66416344D01*
X186253144Y-67734176D01*
X185917659Y-69074277D01*
X185612431Y-70439189D01*
X185336671Y-71831451D01*
X185164275Y-72802824D01*
X184945149Y-74186820D01*
X184759933Y-75553193D01*
X184608039Y-76908861D01*
X184488883Y-78260741D01*
X184401878Y-79615751D01*
X184346441Y-80980810D01*
X184321985Y-82362835D01*
X184320603Y-82772324D01*
X184321085Y-83156757D01*
X184322798Y-83504540D01*
X184325902Y-83821344D01*
X184330562Y-84112838D01*
X184336939Y-84384692D01*
X184345196Y-84642577D01*
X184355495Y-84892162D01*
X184367998Y-85139118D01*
X184382868Y-85389115D01*
X184400267Y-85647822D01*
X184404762Y-85710792D01*
X184414158Y-85845718D01*
X184421871Y-85965595D01*
X184427560Y-86064290D01*
X184430882Y-86135669D01*
X184431495Y-86173600D01*
X184430843Y-86178097D01*
X184409647Y-86186829D01*
X184355165Y-86207838D01*
X184273804Y-86238692D01*
X184171975Y-86276960D01*
X184063784Y-86317346D01*
X183234171Y-86644361D01*
X182434638Y-86996572D01*
X181665773Y-87373527D01*
X180928163Y-87774775D01*
X180222396Y-88199865D01*
X179549058Y-88648346D01*
X178908736Y-89119767D01*
X178302019Y-89613675D01*
X177729493Y-90129621D01*
X177191745Y-90667151D01*
X176689363Y-91225817D01*
X176222934Y-91805165D01*
X175793045Y-92404745D01*
X175455375Y-92932324D01*
X175111685Y-93531862D01*
X174800491Y-94143339D01*
X174521035Y-94769216D01*
X174272556Y-95411954D01*
X174054297Y-96074016D01*
X173865496Y-96757861D01*
X173705396Y-97465951D01*
X173573237Y-98200747D01*
X173468259Y-98964711D01*
X173405092Y-99578657D01*
X173397531Y-99688099D01*
X173390726Y-99833812D01*
X173384727Y-100009738D01*
X173379587Y-100209821D01*
X173375358Y-100428003D01*
X173372091Y-100658227D01*
X173369838Y-100894436D01*
X173368651Y-101130573D01*
X173368582Y-101360581D01*
X173369683Y-101578403D01*
X173372005Y-101777982D01*
X173375600Y-101953261D01*
X173380520Y-102098182D01*
X173383098Y-102150407D01*
X173456800Y-103119212D01*
X173570372Y-104100409D01*
X173723557Y-105092895D01*
X173916100Y-106095569D01*
X174147743Y-107107328D01*
X174418233Y-108127070D01*
X174727311Y-109153693D01*
X175074723Y-110186095D01*
X175460213Y-111223174D01*
X175533539Y-111410042D01*
X175664946Y-111735887D01*
X175805728Y-112073348D01*
X175952464Y-112414765D01*
X176101733Y-112752480D01*
X176250114Y-113078832D01*
X176394187Y-113386164D01*
X176530531Y-113666815D01*
X176625192Y-113854280D01*
X176679079Y-113961412D01*
X176723953Y-114055490D01*
X176756985Y-114130166D01*
X176775346Y-114179096D01*
X176777393Y-114195629D01*
X176754990Y-114210816D01*
X176702378Y-114244290D01*
X176625510Y-114292331D01*
X176530341Y-114351218D01*
X176422823Y-114417230D01*
X176422617Y-114417357D01*
X175608950Y-114939677D01*
X174815180Y-115498644D01*
X174043059Y-116092656D01*
X173294341Y-116720112D01*
X172570779Y-117379410D01*
X171874124Y-118068950D01*
X171206131Y-118787130D01*
X170568551Y-119532348D01*
X169963138Y-120303003D01*
X169925935Y-120352609D01*
X169337462Y-121174522D01*
X168780453Y-122024167D01*
X168255425Y-122900391D01*
X167762897Y-123802038D01*
X167303387Y-124727953D01*
X166877413Y-125676981D01*
X166485494Y-126647967D01*
X166128147Y-127639757D01*
X165805892Y-128651194D01*
X165519246Y-129681125D01*
X165268729Y-130728394D01*
X165267572Y-130733654D01*
X165183138Y-131135371D01*
X165103194Y-131550535D01*
X165028754Y-131972257D01*
X164960831Y-132393647D01*
X164900441Y-132807814D01*
X164848597Y-133207869D01*
X164806313Y-133586921D01*
X164774603Y-133938082D01*
X164757114Y-134202032D01*
X164750885Y-134303291D01*
X164744123Y-134387227D01*
X164737585Y-134445915D01*
X164732030Y-134471431D01*
X164731324Y-134471907D01*
X164708981Y-134466932D01*
X164649962Y-134452727D01*
X164558650Y-134430377D01*
X164439425Y-134400962D01*
X164296671Y-134365565D01*
X164134770Y-134325270D01*
X163958105Y-134281158D01*
X163882592Y-134262262D01*
X163055363Y-134061049D01*
X162258464Y-133879631D01*
X161485378Y-133716963D01*
X160729588Y-133571994D01*
X159984578Y-133443679D01*
X159243832Y-133330967D01*
X158500833Y-133232812D01*
X157749064Y-133148165D01*
X156982010Y-133075979D01*
X156193154Y-133015205D01*
X156081450Y-133007604D01*
X155955694Y-133000969D01*
X155793616Y-132995236D01*
X155600636Y-132990408D01*
X155382173Y-132986486D01*
X155143647Y-132983470D01*
X154890478Y-132981361D01*
X154628085Y-132980162D01*
X154361887Y-132979872D01*
X154097305Y-132980494D01*
X153839758Y-132982028D01*
X153594665Y-132984476D01*
X153367446Y-132987838D01*
X153163520Y-132992116D01*
X152988308Y-132997311D01*
X152847228Y-133003424D01*
X152790034Y-133006905D01*
X152130611Y-133058793D01*
X151506452Y-133120622D01*
X150911462Y-133193311D01*
X150339545Y-133277775D01*
X149784604Y-133374933D01*
X149240543Y-133485701D01*
X148701267Y-133610997D01*
X148588450Y-133639142D01*
X147753740Y-133868549D01*
X146947967Y-134128323D01*
X146169987Y-134419046D01*
X145418654Y-134741297D01*
X144692823Y-135095659D01*
X143991350Y-135482711D01*
X143313090Y-135903037D01*
X142656898Y-136357215D01*
X142021629Y-136845829D01*
X141635200Y-137168528D01*
X141517968Y-137272662D01*
X141378472Y-137401770D01*
X141223033Y-137549599D01*
X141057971Y-137709898D01*
X140889607Y-137876413D01*
X140724260Y-138042892D01*
X140568252Y-138203083D01*
X140427901Y-138350733D01*
X140309529Y-138479590D01*
X140306482Y-138482990D01*
X139797511Y-139082318D01*
X139324373Y-139703357D01*
X138887655Y-140345239D01*
X138487945Y-141007093D01*
X138125830Y-141688049D01*
X138078102Y-141784990D01*
X137928722Y-142101422D01*
X137792933Y-142409366D01*
X137673449Y-142702183D01*
X137572986Y-142973238D01*
X137498048Y-143203157D01*
X137468134Y-143302642D01*
X137442019Y-143388703D01*
X137422410Y-143452467D01*
X137412018Y-143485062D01*
X137411749Y-143485827D01*
X137392806Y-143483603D01*
X137346151Y-143451568D01*
X137273076Y-143390747D01*
X137174875Y-143302165D01*
X137144797Y-143274160D01*
X136390463Y-142589388D01*
X135635430Y-141946917D01*
X134879645Y-141346719D01*
X134123057Y-140788767D01*
X133365615Y-140273034D01*
X132607268Y-139799492D01*
X131847964Y-139368113D01*
X131087652Y-138978870D01*
X130326281Y-138631736D01*
X129563800Y-138326683D01*
X128800158Y-138063683D01*
X128035302Y-137842710D01*
X127269183Y-137663735D01*
X126501749Y-137526732D01*
X126395200Y-137511042D01*
X126163644Y-137478889D01*
X125954071Y-137452436D01*
X125758499Y-137431169D01*
X125568945Y-137414574D01*
X125377425Y-137402139D01*
X125175957Y-137393348D01*
X124956557Y-137387690D01*
X124711242Y-137384650D01*
X124432029Y-137383715D01*
X124416117Y-137383714D01*
X124143161Y-137384502D01*
X123904526Y-137387154D01*
X123692224Y-137392189D01*
X123498262Y-137400125D01*
X123314652Y-137411481D01*
X123133404Y-137426775D01*
X122946526Y-137446527D01*
X122746029Y-137471254D01*
X122523922Y-137501476D01*
X122458200Y-137510789D01*
X121717858Y-137637397D01*
X120977529Y-137805692D01*
X120238634Y-138015049D01*
X119502590Y-138264846D01*
X118770815Y-138554460D01*
X118044727Y-138883266D01*
X117325745Y-139250641D01*
X116615287Y-139655962D01*
X115914771Y-140098606D01*
X115225616Y-140577948D01*
X114859367Y-140851318D01*
X114469747Y-141157878D01*
X114080556Y-141480761D01*
X113697167Y-141814937D01*
X113324952Y-142155372D01*
X112969282Y-142497036D01*
X112635531Y-142834896D01*
X112329071Y-143163920D01*
X112060319Y-143473032D01*
X111990897Y-143555007D01*
X111930847Y-143623812D01*
X111885421Y-143673590D01*
X111859867Y-143698485D01*
X111856665Y-143700240D01*
X111836351Y-143686872D01*
X111791456Y-143650831D01*
X111728841Y-143597786D01*
X111663200Y-143540365D01*
X111152252Y-143115472D01*
X110612510Y-142721176D01*
X110044768Y-142357801D01*
X109449823Y-142025669D01*
X108828470Y-141725104D01*
X108181505Y-141456428D01*
X107509723Y-141219964D01*
X106813921Y-141016037D01*
X106094893Y-140844968D01*
X105353436Y-140707082D01*
X104590344Y-140602700D01*
X104371284Y-140579358D01*
X103576163Y-140517537D01*
X102758418Y-140488571D01*
X101922062Y-140492412D01*
X101071106Y-140529012D01*
X100209563Y-140598324D01*
X99883950Y-140632810D01*
X99346268Y-140700035D01*
X98796525Y-140781280D01*
X98241069Y-140875173D01*
X97686246Y-140980344D01*
X97138402Y-141095423D01*
X96603885Y-141219040D01*
X96089040Y-141349825D01*
X95600214Y-141486407D01*
X95143754Y-141627416D01*
X94904314Y-141707918D01*
X94788676Y-141747159D01*
X94688129Y-141779532D01*
X94608908Y-141803175D01*
X94557248Y-141816224D01*
X94539367Y-141816984D01*
X94551349Y-141796316D01*
X94585428Y-141745399D01*
X94638805Y-141668218D01*
X94708679Y-141568762D01*
X94792251Y-141451019D01*
X94886719Y-141318976D01*
X94980405Y-141188907D01*
X95840549Y-139973487D01*
X96667552Y-138754275D01*
X97460874Y-137532341D01*
X98219978Y-136308752D01*
X98944327Y-135084579D01*
X99633383Y-133860890D01*
X100286608Y-132638754D01*
X100903465Y-131419240D01*
X101483415Y-130203417D01*
X102025921Y-128992354D01*
X102530445Y-127787120D01*
X102996450Y-126588783D01*
X103423398Y-125398413D01*
X103810750Y-124217079D01*
X104157970Y-123045850D01*
X104220702Y-122819657D01*
X104336637Y-122384795D01*
X104446881Y-121947416D01*
X104550442Y-121512375D01*
X104646328Y-121084524D01*
X104733548Y-120668716D01*
X104811109Y-120269806D01*
X104878020Y-119892647D01*
X104933289Y-119542092D01*
X104975925Y-119222995D01*
X104998366Y-119014137D01*
X105009292Y-118908980D01*
X105020378Y-118820811D01*
X105030518Y-118757244D01*
X105038605Y-118725894D01*
X105040522Y-118723907D01*
X105062144Y-118733112D01*
X105117289Y-118759328D01*
X105201702Y-118800458D01*
X105311131Y-118854405D01*
X105441323Y-118919070D01*
X105588024Y-118992357D01*
X105746981Y-119072167D01*
X105761047Y-119079248D01*
X107118655Y-119743267D01*
X108478068Y-120369226D01*
X109838482Y-120956888D01*
X111199094Y-121506018D01*
X112559099Y-122016379D01*
X113917693Y-122487735D01*
X115274074Y-122919851D01*
X116627436Y-123312491D01*
X117976977Y-123665419D01*
X119321893Y-123978400D01*
X120661379Y-124251196D01*
X121994632Y-124483573D01*
X123320848Y-124675294D01*
X124639223Y-124826124D01*
X125643784Y-124913891D01*
X126780344Y-124984291D01*
X127914358Y-125023939D01*
X129041042Y-125032904D01*
X130155614Y-125011255D01*
X131253291Y-124959060D01*
X132329289Y-124876389D01*
X132999200Y-124808094D01*
X133912767Y-124694041D01*
X134809382Y-124558743D01*
X135686184Y-124402864D01*
X136540312Y-124227066D01*
X137368905Y-124032012D01*
X138169102Y-123818366D01*
X138938041Y-123586791D01*
X139672863Y-123337949D01*
X140206450Y-123137807D01*
X140330756Y-123088547D01*
X140452964Y-123039178D01*
X140562643Y-122993981D01*
X140649360Y-122957234D01*
X140685275Y-122941366D01*
X140825433Y-122877692D01*
X140841438Y-122689924D01*
X140850180Y-122543807D01*
X140854894Y-122366154D01*
X140855739Y-122167557D01*
X140852873Y-121958605D01*
X140846457Y-121749891D01*
X140836649Y-121552003D01*
X140823609Y-121375533D01*
X140821301Y-121350697D01*
X140759096Y-120834102D01*
X140668885Y-120287153D01*
X140551019Y-119710932D01*
X140405850Y-119106516D01*
X140233729Y-118474986D01*
X140035005Y-117817423D01*
X139943191Y-117538879D01*
X143459415Y-117538879D01*
X143462562Y-117964821D01*
X143491106Y-118362287D01*
X143544732Y-118730437D01*
X143623127Y-119068430D01*
X143725979Y-119375427D01*
X143852972Y-119650587D01*
X144003795Y-119893070D01*
X144178133Y-120102036D01*
X144375674Y-120276645D01*
X144515940Y-120371061D01*
X144616579Y-120422248D01*
X144743390Y-120473364D01*
X144880587Y-120518733D01*
X145012380Y-120552678D01*
X145032450Y-120556775D01*
X145147302Y-120571430D01*
X145291679Y-120578142D01*
X145453604Y-120577310D01*
X145621099Y-120569337D01*
X145782187Y-120554620D01*
X145924890Y-120533562D01*
X145964284Y-120525643D01*
X146277177Y-120443937D01*
X146609777Y-120331380D01*
X146955664Y-120190428D01*
X147308419Y-120023540D01*
X147403117Y-119974818D01*
X147555960Y-119893367D01*
X147700883Y-119813378D01*
X147833367Y-119737583D01*
X147948893Y-119668713D01*
X148042941Y-119609501D01*
X148110992Y-119562676D01*
X148148526Y-119530971D01*
X148154534Y-119520690D01*
X148140436Y-119493242D01*
X148101380Y-119441165D01*
X148042219Y-119369882D01*
X147967807Y-119284821D01*
X147882996Y-119191405D01*
X147792642Y-119095061D01*
X147701596Y-119001215D01*
X147614714Y-118915290D01*
X147602194Y-118903280D01*
X147212950Y-118558029D01*
X146803775Y-118245803D01*
X146377395Y-117968038D01*
X145936535Y-117726174D01*
X145483922Y-117521648D01*
X145022279Y-117355897D01*
X144554334Y-117230361D01*
X144353748Y-117189451D01*
X144238987Y-117169987D01*
X144112249Y-117151380D01*
X143980602Y-117134344D01*
X143851112Y-117119593D01*
X143730847Y-117107840D01*
X143626873Y-117099800D01*
X143546258Y-117096186D01*
X143496070Y-117097711D01*
X143483347Y-117101537D01*
X143478429Y-117126271D01*
X143473266Y-117186696D01*
X143468222Y-117276177D01*
X143463660Y-117388076D01*
X143459944Y-117515757D01*
X143459415Y-117538879D01*
X139943191Y-117538879D01*
X139810031Y-117134904D01*
X139559157Y-116428511D01*
X139282734Y-115699323D01*
X138981112Y-114948420D01*
X138799732Y-114519764D01*
X149407687Y-114519764D01*
X149409412Y-114879137D01*
X149430674Y-115269015D01*
X149471131Y-115686054D01*
X149530444Y-116126908D01*
X149608271Y-116588235D01*
X149704273Y-117066689D01*
X149730415Y-117185640D01*
X149767110Y-117346298D01*
X149805283Y-117507105D01*
X149843543Y-117662791D01*
X149880504Y-117808089D01*
X149914775Y-117937729D01*
X149944968Y-118046443D01*
X149969695Y-118128961D01*
X149987566Y-118180016D01*
X149996397Y-118194740D01*
X150018789Y-118183764D01*
X150067118Y-118154538D01*
X150132318Y-118112621D01*
X150156136Y-118096853D01*
X150361368Y-117947352D01*
X150576026Y-117765837D01*
X150802768Y-117549936D01*
X151006504Y-117338132D01*
X151304495Y-116991594D01*
X151590205Y-116607372D01*
X151861795Y-116188807D01*
X152117427Y-115739242D01*
X152355261Y-115262019D01*
X152573458Y-114760477D01*
X152770178Y-114237960D01*
X152859232Y-113971990D01*
X152907553Y-113822969D01*
X152944214Y-113708910D01*
X152969108Y-113624048D01*
X152982128Y-113562621D01*
X152983166Y-113518862D01*
X152972113Y-113487008D01*
X152948864Y-113461294D01*
X152913310Y-113435957D01*
X152865343Y-113405230D01*
X152848448Y-113394054D01*
X152685108Y-113288571D01*
X152501426Y-113177105D01*
X152310527Y-113067186D01*
X152125533Y-112966342D01*
X151959569Y-112882102D01*
X151938329Y-112871933D01*
X151619946Y-112734351D01*
X151322376Y-112633528D01*
X151045740Y-112569398D01*
X150790163Y-112541897D01*
X150555768Y-112550960D01*
X150342677Y-112596522D01*
X150151014Y-112678518D01*
X149980902Y-112796883D01*
X149832464Y-112951553D01*
X149705825Y-113142462D01*
X149601106Y-113369547D01*
X149518431Y-113632741D01*
X149457923Y-113931980D01*
X149425839Y-114194240D01*
X149407687Y-114519764D01*
X138799732Y-114519764D01*
X138654644Y-114176881D01*
X138303679Y-113385786D01*
X138062181Y-112860740D01*
X138008688Y-112747542D01*
X137939306Y-112603113D01*
X137857242Y-112434003D01*
X137765705Y-112246762D01*
X137667901Y-112047940D01*
X137567039Y-111844088D01*
X137466325Y-111641756D01*
X137416544Y-111542244D01*
X137327029Y-111363185D01*
X137243897Y-111196024D01*
X137168970Y-111044492D01*
X137104074Y-110912322D01*
X137051034Y-110803244D01*
X137011674Y-110720990D01*
X136987820Y-110669293D01*
X136981169Y-110651889D01*
X137000677Y-110636582D01*
X137043114Y-110602810D01*
X137086917Y-110567791D01*
X137184717Y-110489467D01*
X137462227Y-110721079D01*
X137913795Y-111081607D01*
X138355667Y-111401255D01*
X138788259Y-111680250D01*
X139211988Y-111918819D01*
X139627269Y-112117190D01*
X140034518Y-112275590D01*
X140434153Y-112394246D01*
X140590893Y-112430404D01*
X140696791Y-112451804D01*
X140788156Y-112467199D01*
X140876021Y-112477542D01*
X140971419Y-112483791D01*
X141085383Y-112486899D01*
X141228948Y-112487822D01*
X141254200Y-112487831D01*
X141461408Y-112484607D01*
X141638020Y-112473811D01*
X141795374Y-112453649D01*
X141944814Y-112422324D01*
X142097678Y-112378040D01*
X142224089Y-112334261D01*
X142531551Y-112199738D01*
X142826087Y-112026357D01*
X143105547Y-111816198D01*
X143367786Y-111571339D01*
X143610656Y-111293862D01*
X143832009Y-110985845D01*
X144029697Y-110649368D01*
X144093665Y-110523700D01*
X144135314Y-110436317D01*
X144168847Y-110361570D01*
X144190383Y-110308399D01*
X144196367Y-110287219D01*
X144215632Y-110269747D01*
X144268661Y-110244501D01*
X144348302Y-110214576D01*
X144413325Y-110193345D01*
X144711123Y-110091745D01*
X145011402Y-109971697D01*
X145303365Y-109838187D01*
X145576213Y-109696198D01*
X145819149Y-109550714D01*
X145851261Y-109529618D01*
X146171826Y-109293144D01*
X146456479Y-109034540D01*
X146705034Y-108754390D01*
X146917301Y-108453280D01*
X147093094Y-108131793D01*
X147232224Y-107790514D01*
X147334504Y-107430027D01*
X147399746Y-107050917D01*
X147427763Y-106653769D01*
X147418365Y-106239166D01*
X147371367Y-105807694D01*
X147286579Y-105359936D01*
X147245549Y-105190085D01*
X147182712Y-104963204D01*
X147108800Y-104728252D01*
X147028531Y-104498958D01*
X146946621Y-104289052D01*
X146895580Y-104171370D01*
X146823034Y-104012178D01*
X146939375Y-103934931D01*
X147003958Y-103894097D01*
X147044091Y-103875684D01*
X147069126Y-103876625D01*
X147083227Y-103887754D01*
X147104081Y-103912026D01*
X147147821Y-103963984D01*
X147210335Y-104038707D01*
X147287510Y-104131273D01*
X147375236Y-104236761D01*
X147435536Y-104309407D01*
X147953533Y-104924409D01*
X148463114Y-105510389D01*
X148963369Y-106066460D01*
X149453390Y-106591732D01*
X149932266Y-107085318D01*
X150399088Y-107546329D01*
X150852946Y-107973877D01*
X151292932Y-108367073D01*
X151718136Y-108725030D01*
X152127647Y-109046860D01*
X152520558Y-109331673D01*
X152705824Y-109456841D01*
X153052538Y-109674201D01*
X153385350Y-109860729D01*
X153702998Y-110016076D01*
X154004218Y-110139891D01*
X154287748Y-110231824D01*
X154552325Y-110291525D01*
X154796688Y-110318645D01*
X155019572Y-110312833D01*
X155219716Y-110273738D01*
X155393963Y-110202047D01*
X155492812Y-110148246D01*
X155970737Y-109192035D01*
X156616411Y-107867107D01*
X157222961Y-106553908D01*
X157791226Y-105250199D01*
X158322044Y-103953743D01*
X158816255Y-102662303D01*
X159274698Y-101373642D01*
X159698212Y-100085523D01*
X160087635Y-98795707D01*
X160443808Y-97501959D01*
X160631878Y-96763490D01*
X160919927Y-95537097D01*
X161173448Y-94325526D01*
X161393521Y-93121541D01*
X161581226Y-91917909D01*
X161737643Y-90707393D01*
X161863853Y-89482760D01*
X161960935Y-88236774D01*
X161998598Y-87608907D01*
X162006107Y-87443475D01*
X162012850Y-87241676D01*
X162018791Y-87009470D01*
X162023891Y-86752817D01*
X162028112Y-86477677D01*
X162031416Y-86190009D01*
X162033766Y-85895774D01*
X162035123Y-85600932D01*
X162035450Y-85311442D01*
X162034709Y-85033265D01*
X162032862Y-84772361D01*
X162029870Y-84534689D01*
X162025697Y-84326210D01*
X162020531Y-84158740D01*
X161960594Y-82998301D01*
X161871038Y-81867380D01*
X161751745Y-80765138D01*
X161602598Y-79690734D01*
X161423481Y-78643329D01*
X161214276Y-77622081D01*
X160974868Y-76626150D01*
X160970876Y-76610744D01*
X160857141Y-76188102D01*
X160736005Y-75767459D01*
X160609518Y-75355012D01*
X160479726Y-74956954D01*
X160348678Y-74579480D01*
X160218421Y-74228785D01*
X160091004Y-73911063D01*
X160035560Y-73781459D01*
X159993456Y-73683361D01*
X159959165Y-73599931D01*
X159935528Y-73538361D01*
X159925384Y-73505844D01*
X159925493Y-73502704D01*
X159948200Y-73503750D01*
X160003544Y-73512766D01*
X160082911Y-73528203D01*
X160166617Y-73546055D01*
X160698633Y-73656064D01*
X161209259Y-73745216D01*
X161709302Y-73814678D01*
X162209572Y-73865619D01*
X162720877Y-73899205D01*
X163254026Y-73916602D01*
X163627367Y-73919784D01*
X163917318Y-73918512D01*
X164176225Y-73914422D01*
X164415313Y-73906981D01*
X164645809Y-73895659D01*
X164878939Y-73879926D01*
X165125930Y-73859250D01*
X165341867Y-73838713D01*
X166182616Y-73735525D01*
X167033796Y-73591723D01*
X167894901Y-73407592D01*
X168765427Y-73183413D01*
X169644869Y-72919471D01*
X170532722Y-72616048D01*
X171428481Y-72273427D01*
X172331642Y-71891893D01*
X173241699Y-71471727D01*
X174158149Y-71013213D01*
X175080486Y-70516635D01*
X176008205Y-69982275D01*
X176940802Y-69410417D01*
X177877772Y-68801344D01*
X178818609Y-68155339D01*
X179762810Y-67472686D01*
X180709869Y-66753667D01*
X181659282Y-65998566D01*
X182610543Y-65207665D01*
X183563149Y-64381249D01*
X184516594Y-63519600D01*
X185470373Y-62623002D01*
X185661689Y-62438969D01*
X186025033Y-62084489D01*
X186396655Y-61715010D01*
X186772167Y-61335160D01*
X187147183Y-60949566D01*
X187517315Y-60562857D01*
X187878178Y-60179662D01*
X188225383Y-59804608D01*
X188554544Y-59442322D01*
X188861273Y-59097435D01*
X189141185Y-58774572D01*
X189194634Y-58711789D01*
X189351200Y-58527255D01*
X189411859Y-58563086D01*
G37*
X189411859Y-58563086D02*
X189474671Y-58603953D01*
X189528683Y-58643704D01*
X189584850Y-58688489D01*
X189515258Y-58834740D01*
X188945804Y-60072307D01*
X188412148Y-61316900D01*
X187913499Y-62571060D01*
X187449066Y-63837326D01*
X187018057Y-65118241D01*
X186619680Y-66416344D01*
X186253144Y-67734176D01*
X185917659Y-69074277D01*
X185612431Y-70439189D01*
X185336671Y-71831451D01*
X185164275Y-72802824D01*
X184945149Y-74186820D01*
X184759933Y-75553193D01*
X184608039Y-76908861D01*
X184488883Y-78260741D01*
X184401878Y-79615751D01*
X184346441Y-80980810D01*
X184321985Y-82362835D01*
X184320603Y-82772324D01*
X184321085Y-83156757D01*
X184322798Y-83504540D01*
X184325902Y-83821344D01*
X184330562Y-84112838D01*
X184336939Y-84384692D01*
X184345196Y-84642577D01*
X184355495Y-84892162D01*
X184367998Y-85139118D01*
X184382868Y-85389115D01*
X184400267Y-85647822D01*
X184404762Y-85710792D01*
X184414158Y-85845718D01*
X184421871Y-85965595D01*
X184427560Y-86064290D01*
X184430882Y-86135669D01*
X184431495Y-86173600D01*
X184430843Y-86178097D01*
X184409647Y-86186829D01*
X184355165Y-86207838D01*
X184273804Y-86238692D01*
X184171975Y-86276960D01*
X184063784Y-86317346D01*
X183234171Y-86644361D01*
X182434638Y-86996572D01*
X181665773Y-87373527D01*
X180928163Y-87774775D01*
X180222396Y-88199865D01*
X179549058Y-88648346D01*
X178908736Y-89119767D01*
X178302019Y-89613675D01*
X177729493Y-90129621D01*
X177191745Y-90667151D01*
X176689363Y-91225817D01*
X176222934Y-91805165D01*
X175793045Y-92404745D01*
X175455375Y-92932324D01*
X175111685Y-93531862D01*
X174800491Y-94143339D01*
X174521035Y-94769216D01*
X174272556Y-95411954D01*
X174054297Y-96074016D01*
X173865496Y-96757861D01*
X173705396Y-97465951D01*
X173573237Y-98200747D01*
X173468259Y-98964711D01*
X173405092Y-99578657D01*
X173397531Y-99688099D01*
X173390726Y-99833812D01*
X173384727Y-100009738D01*
X173379587Y-100209821D01*
X173375358Y-100428003D01*
X173372091Y-100658227D01*
X173369838Y-100894436D01*
X173368651Y-101130573D01*
X173368582Y-101360581D01*
X173369683Y-101578403D01*
X173372005Y-101777982D01*
X173375600Y-101953261D01*
X173380520Y-102098182D01*
X173383098Y-102150407D01*
X173456800Y-103119212D01*
X173570372Y-104100409D01*
X173723557Y-105092895D01*
X173916100Y-106095569D01*
X174147743Y-107107328D01*
X174418233Y-108127070D01*
X174727311Y-109153693D01*
X175074723Y-110186095D01*
X175460213Y-111223174D01*
X175533539Y-111410042D01*
X175664946Y-111735887D01*
X175805728Y-112073348D01*
X175952464Y-112414765D01*
X176101733Y-112752480D01*
X176250114Y-113078832D01*
X176394187Y-113386164D01*
X176530531Y-113666815D01*
X176625192Y-113854280D01*
X176679079Y-113961412D01*
X176723953Y-114055490D01*
X176756985Y-114130166D01*
X176775346Y-114179096D01*
X176777393Y-114195629D01*
X176754990Y-114210816D01*
X176702378Y-114244290D01*
X176625510Y-114292331D01*
X176530341Y-114351218D01*
X176422823Y-114417230D01*
X176422617Y-114417357D01*
X175608950Y-114939677D01*
X174815180Y-115498644D01*
X174043059Y-116092656D01*
X173294341Y-116720112D01*
X172570779Y-117379410D01*
X171874124Y-118068950D01*
X171206131Y-118787130D01*
X170568551Y-119532348D01*
X169963138Y-120303003D01*
X169925935Y-120352609D01*
X169337462Y-121174522D01*
X168780453Y-122024167D01*
X168255425Y-122900391D01*
X167762897Y-123802038D01*
X167303387Y-124727953D01*
X166877413Y-125676981D01*
X166485494Y-126647967D01*
X166128147Y-127639757D01*
X165805892Y-128651194D01*
X165519246Y-129681125D01*
X165268729Y-130728394D01*
X165267572Y-130733654D01*
X165183138Y-131135371D01*
X165103194Y-131550535D01*
X165028754Y-131972257D01*
X164960831Y-132393647D01*
X164900441Y-132807814D01*
X164848597Y-133207869D01*
X164806313Y-133586921D01*
X164774603Y-133938082D01*
X164757114Y-134202032D01*
X164750885Y-134303291D01*
X164744123Y-134387227D01*
X164737585Y-134445915D01*
X164732030Y-134471431D01*
X164731324Y-134471907D01*
X164708981Y-134466932D01*
X164649962Y-134452727D01*
X164558650Y-134430377D01*
X164439425Y-134400962D01*
X164296671Y-134365565D01*
X164134770Y-134325270D01*
X163958105Y-134281158D01*
X163882592Y-134262262D01*
X163055363Y-134061049D01*
X162258464Y-133879631D01*
X161485378Y-133716963D01*
X160729588Y-133571994D01*
X159984578Y-133443679D01*
X159243832Y-133330967D01*
X158500833Y-133232812D01*
X157749064Y-133148165D01*
X156982010Y-133075979D01*
X156193154Y-133015205D01*
X156081450Y-133007604D01*
X155955694Y-133000969D01*
X155793616Y-132995236D01*
X155600636Y-132990408D01*
X155382173Y-132986486D01*
X155143647Y-132983470D01*
X154890478Y-132981361D01*
X154628085Y-132980162D01*
X154361887Y-132979872D01*
X154097305Y-132980494D01*
X153839758Y-132982028D01*
X153594665Y-132984476D01*
X153367446Y-132987838D01*
X153163520Y-132992116D01*
X152988308Y-132997311D01*
X152847228Y-133003424D01*
X152790034Y-133006905D01*
X152130611Y-133058793D01*
X151506452Y-133120622D01*
X150911462Y-133193311D01*
X150339545Y-133277775D01*
X149784604Y-133374933D01*
X149240543Y-133485701D01*
X148701267Y-133610997D01*
X148588450Y-133639142D01*
X147753740Y-133868549D01*
X146947967Y-134128323D01*
X146169987Y-134419046D01*
X145418654Y-134741297D01*
X144692823Y-135095659D01*
X143991350Y-135482711D01*
X143313090Y-135903037D01*
X142656898Y-136357215D01*
X142021629Y-136845829D01*
X141635200Y-137168528D01*
X141517968Y-137272662D01*
X141378472Y-137401770D01*
X141223033Y-137549599D01*
X141057971Y-137709898D01*
X140889607Y-137876413D01*
X140724260Y-138042892D01*
X140568252Y-138203083D01*
X140427901Y-138350733D01*
X140309529Y-138479590D01*
X140306482Y-138482990D01*
X139797511Y-139082318D01*
X139324373Y-139703357D01*
X138887655Y-140345239D01*
X138487945Y-141007093D01*
X138125830Y-141688049D01*
X138078102Y-141784990D01*
X137928722Y-142101422D01*
X137792933Y-142409366D01*
X137673449Y-142702183D01*
X137572986Y-142973238D01*
X137498048Y-143203157D01*
X137468134Y-143302642D01*
X137442019Y-143388703D01*
X137422410Y-143452467D01*
X137412018Y-143485062D01*
X137411749Y-143485827D01*
X137392806Y-143483603D01*
X137346151Y-143451568D01*
X137273076Y-143390747D01*
X137174875Y-143302165D01*
X137144797Y-143274160D01*
X136390463Y-142589388D01*
X135635430Y-141946917D01*
X134879645Y-141346719D01*
X134123057Y-140788767D01*
X133365615Y-140273034D01*
X132607268Y-139799492D01*
X131847964Y-139368113D01*
X131087652Y-138978870D01*
X130326281Y-138631736D01*
X129563800Y-138326683D01*
X128800158Y-138063683D01*
X128035302Y-137842710D01*
X127269183Y-137663735D01*
X126501749Y-137526732D01*
X126395200Y-137511042D01*
X126163644Y-137478889D01*
X125954071Y-137452436D01*
X125758499Y-137431169D01*
X125568945Y-137414574D01*
X125377425Y-137402139D01*
X125175957Y-137393348D01*
X124956557Y-137387690D01*
X124711242Y-137384650D01*
X124432029Y-137383715D01*
X124416117Y-137383714D01*
X124143161Y-137384502D01*
X123904526Y-137387154D01*
X123692224Y-137392189D01*
X123498262Y-137400125D01*
X123314652Y-137411481D01*
X123133404Y-137426775D01*
X122946526Y-137446527D01*
X122746029Y-137471254D01*
X122523922Y-137501476D01*
X122458200Y-137510789D01*
X121717858Y-137637397D01*
X120977529Y-137805692D01*
X120238634Y-138015049D01*
X119502590Y-138264846D01*
X118770815Y-138554460D01*
X118044727Y-138883266D01*
X117325745Y-139250641D01*
X116615287Y-139655962D01*
X115914771Y-140098606D01*
X115225616Y-140577948D01*
X114859367Y-140851318D01*
X114469747Y-141157878D01*
X114080556Y-141480761D01*
X113697167Y-141814937D01*
X113324952Y-142155372D01*
X112969282Y-142497036D01*
X112635531Y-142834896D01*
X112329071Y-143163920D01*
X112060319Y-143473032D01*
X111990897Y-143555007D01*
X111930847Y-143623812D01*
X111885421Y-143673590D01*
X111859867Y-143698485D01*
X111856665Y-143700240D01*
X111836351Y-143686872D01*
X111791456Y-143650831D01*
X111728841Y-143597786D01*
X111663200Y-143540365D01*
X111152252Y-143115472D01*
X110612510Y-142721176D01*
X110044768Y-142357801D01*
X109449823Y-142025669D01*
X108828470Y-141725104D01*
X108181505Y-141456428D01*
X107509723Y-141219964D01*
X106813921Y-141016037D01*
X106094893Y-140844968D01*
X105353436Y-140707082D01*
X104590344Y-140602700D01*
X104371284Y-140579358D01*
X103576163Y-140517537D01*
X102758418Y-140488571D01*
X101922062Y-140492412D01*
X101071106Y-140529012D01*
X100209563Y-140598324D01*
X99883950Y-140632810D01*
X99346268Y-140700035D01*
X98796525Y-140781280D01*
X98241069Y-140875173D01*
X97686246Y-140980344D01*
X97138402Y-141095423D01*
X96603885Y-141219040D01*
X96089040Y-141349825D01*
X95600214Y-141486407D01*
X95143754Y-141627416D01*
X94904314Y-141707918D01*
X94788676Y-141747159D01*
X94688129Y-141779532D01*
X94608908Y-141803175D01*
X94557248Y-141816224D01*
X94539367Y-141816984D01*
X94551349Y-141796316D01*
X94585428Y-141745399D01*
X94638805Y-141668218D01*
X94708679Y-141568762D01*
X94792251Y-141451019D01*
X94886719Y-141318976D01*
X94980405Y-141188907D01*
X95840549Y-139973487D01*
X96667552Y-138754275D01*
X97460874Y-137532341D01*
X98219978Y-136308752D01*
X98944327Y-135084579D01*
X99633383Y-133860890D01*
X100286608Y-132638754D01*
X100903465Y-131419240D01*
X101483415Y-130203417D01*
X102025921Y-128992354D01*
X102530445Y-127787120D01*
X102996450Y-126588783D01*
X103423398Y-125398413D01*
X103810750Y-124217079D01*
X104157970Y-123045850D01*
X104220702Y-122819657D01*
X104336637Y-122384795D01*
X104446881Y-121947416D01*
X104550442Y-121512375D01*
X104646328Y-121084524D01*
X104733548Y-120668716D01*
X104811109Y-120269806D01*
X104878020Y-119892647D01*
X104933289Y-119542092D01*
X104975925Y-119222995D01*
X104998366Y-119014137D01*
X105009292Y-118908980D01*
X105020378Y-118820811D01*
X105030518Y-118757244D01*
X105038605Y-118725894D01*
X105040522Y-118723907D01*
X105062144Y-118733112D01*
X105117289Y-118759328D01*
X105201702Y-118800458D01*
X105311131Y-118854405D01*
X105441323Y-118919070D01*
X105588024Y-118992357D01*
X105746981Y-119072167D01*
X105761047Y-119079248D01*
X107118655Y-119743267D01*
X108478068Y-120369226D01*
X109838482Y-120956888D01*
X111199094Y-121506018D01*
X112559099Y-122016379D01*
X113917693Y-122487735D01*
X115274074Y-122919851D01*
X116627436Y-123312491D01*
X117976977Y-123665419D01*
X119321893Y-123978400D01*
X120661379Y-124251196D01*
X121994632Y-124483573D01*
X123320848Y-124675294D01*
X124639223Y-124826124D01*
X125643784Y-124913891D01*
X126780344Y-124984291D01*
X127914358Y-125023939D01*
X129041042Y-125032904D01*
X130155614Y-125011255D01*
X131253291Y-124959060D01*
X132329289Y-124876389D01*
X132999200Y-124808094D01*
X133912767Y-124694041D01*
X134809382Y-124558743D01*
X135686184Y-124402864D01*
X136540312Y-124227066D01*
X137368905Y-124032012D01*
X138169102Y-123818366D01*
X138938041Y-123586791D01*
X139672863Y-123337949D01*
X140206450Y-123137807D01*
X140330756Y-123088547D01*
X140452964Y-123039178D01*
X140562643Y-122993981D01*
X140649360Y-122957234D01*
X140685275Y-122941366D01*
X140825433Y-122877692D01*
X140841438Y-122689924D01*
X140850180Y-122543807D01*
X140854894Y-122366154D01*
X140855739Y-122167557D01*
X140852873Y-121958605D01*
X140846457Y-121749891D01*
X140836649Y-121552003D01*
X140823609Y-121375533D01*
X140821301Y-121350697D01*
X140759096Y-120834102D01*
X140668885Y-120287153D01*
X140551019Y-119710932D01*
X140405850Y-119106516D01*
X140233729Y-118474986D01*
X140035005Y-117817423D01*
X139943191Y-117538879D01*
X143459415Y-117538879D01*
X143462562Y-117964821D01*
X143491106Y-118362287D01*
X143544732Y-118730437D01*
X143623127Y-119068430D01*
X143725979Y-119375427D01*
X143852972Y-119650587D01*
X144003795Y-119893070D01*
X144178133Y-120102036D01*
X144375674Y-120276645D01*
X144515940Y-120371061D01*
X144616579Y-120422248D01*
X144743390Y-120473364D01*
X144880587Y-120518733D01*
X145012380Y-120552678D01*
X145032450Y-120556775D01*
X145147302Y-120571430D01*
X145291679Y-120578142D01*
X145453604Y-120577310D01*
X145621099Y-120569337D01*
X145782187Y-120554620D01*
X145924890Y-120533562D01*
X145964284Y-120525643D01*
X146277177Y-120443937D01*
X146609777Y-120331380D01*
X146955664Y-120190428D01*
X147308419Y-120023540D01*
X147403117Y-119974818D01*
X147555960Y-119893367D01*
X147700883Y-119813378D01*
X147833367Y-119737583D01*
X147948893Y-119668713D01*
X148042941Y-119609501D01*
X148110992Y-119562676D01*
X148148526Y-119530971D01*
X148154534Y-119520690D01*
X148140436Y-119493242D01*
X148101380Y-119441165D01*
X148042219Y-119369882D01*
X147967807Y-119284821D01*
X147882996Y-119191405D01*
X147792642Y-119095061D01*
X147701596Y-119001215D01*
X147614714Y-118915290D01*
X147602194Y-118903280D01*
X147212950Y-118558029D01*
X146803775Y-118245803D01*
X146377395Y-117968038D01*
X145936535Y-117726174D01*
X145483922Y-117521648D01*
X145022279Y-117355897D01*
X144554334Y-117230361D01*
X144353748Y-117189451D01*
X144238987Y-117169987D01*
X144112249Y-117151380D01*
X143980602Y-117134344D01*
X143851112Y-117119593D01*
X143730847Y-117107840D01*
X143626873Y-117099800D01*
X143546258Y-117096186D01*
X143496070Y-117097711D01*
X143483347Y-117101537D01*
X143478429Y-117126271D01*
X143473266Y-117186696D01*
X143468222Y-117276177D01*
X143463660Y-117388076D01*
X143459944Y-117515757D01*
X143459415Y-117538879D01*
X139943191Y-117538879D01*
X139810031Y-117134904D01*
X139559157Y-116428511D01*
X139282734Y-115699323D01*
X138981112Y-114948420D01*
X138799732Y-114519764D01*
X149407687Y-114519764D01*
X149409412Y-114879137D01*
X149430674Y-115269015D01*
X149471131Y-115686054D01*
X149530444Y-116126908D01*
X149608271Y-116588235D01*
X149704273Y-117066689D01*
X149730415Y-117185640D01*
X149767110Y-117346298D01*
X149805283Y-117507105D01*
X149843543Y-117662791D01*
X149880504Y-117808089D01*
X149914775Y-117937729D01*
X149944968Y-118046443D01*
X149969695Y-118128961D01*
X149987566Y-118180016D01*
X149996397Y-118194740D01*
X150018789Y-118183764D01*
X150067118Y-118154538D01*
X150132318Y-118112621D01*
X150156136Y-118096853D01*
X150361368Y-117947352D01*
X150576026Y-117765837D01*
X150802768Y-117549936D01*
X151006504Y-117338132D01*
X151304495Y-116991594D01*
X151590205Y-116607372D01*
X151861795Y-116188807D01*
X152117427Y-115739242D01*
X152355261Y-115262019D01*
X152573458Y-114760477D01*
X152770178Y-114237960D01*
X152859232Y-113971990D01*
X152907553Y-113822969D01*
X152944214Y-113708910D01*
X152969108Y-113624048D01*
X152982128Y-113562621D01*
X152983166Y-113518862D01*
X152972113Y-113487008D01*
X152948864Y-113461294D01*
X152913310Y-113435957D01*
X152865343Y-113405230D01*
X152848448Y-113394054D01*
X152685108Y-113288571D01*
X152501426Y-113177105D01*
X152310527Y-113067186D01*
X152125533Y-112966342D01*
X151959569Y-112882102D01*
X151938329Y-112871933D01*
X151619946Y-112734351D01*
X151322376Y-112633528D01*
X151045740Y-112569398D01*
X150790163Y-112541897D01*
X150555768Y-112550960D01*
X150342677Y-112596522D01*
X150151014Y-112678518D01*
X149980902Y-112796883D01*
X149832464Y-112951553D01*
X149705825Y-113142462D01*
X149601106Y-113369547D01*
X149518431Y-113632741D01*
X149457923Y-113931980D01*
X149425839Y-114194240D01*
X149407687Y-114519764D01*
X138799732Y-114519764D01*
X138654644Y-114176881D01*
X138303679Y-113385786D01*
X138062181Y-112860740D01*
X138008688Y-112747542D01*
X137939306Y-112603113D01*
X137857242Y-112434003D01*
X137765705Y-112246762D01*
X137667901Y-112047940D01*
X137567039Y-111844088D01*
X137466325Y-111641756D01*
X137416544Y-111542244D01*
X137327029Y-111363185D01*
X137243897Y-111196024D01*
X137168970Y-111044492D01*
X137104074Y-110912322D01*
X137051034Y-110803244D01*
X137011674Y-110720990D01*
X136987820Y-110669293D01*
X136981169Y-110651889D01*
X137000677Y-110636582D01*
X137043114Y-110602810D01*
X137086917Y-110567791D01*
X137184717Y-110489467D01*
X137462227Y-110721079D01*
X137913795Y-111081607D01*
X138355667Y-111401255D01*
X138788259Y-111680250D01*
X139211988Y-111918819D01*
X139627269Y-112117190D01*
X140034518Y-112275590D01*
X140434153Y-112394246D01*
X140590893Y-112430404D01*
X140696791Y-112451804D01*
X140788156Y-112467199D01*
X140876021Y-112477542D01*
X140971419Y-112483791D01*
X141085383Y-112486899D01*
X141228948Y-112487822D01*
X141254200Y-112487831D01*
X141461408Y-112484607D01*
X141638020Y-112473811D01*
X141795374Y-112453649D01*
X141944814Y-112422324D01*
X142097678Y-112378040D01*
X142224089Y-112334261D01*
X142531551Y-112199738D01*
X142826087Y-112026357D01*
X143105547Y-111816198D01*
X143367786Y-111571339D01*
X143610656Y-111293862D01*
X143832009Y-110985845D01*
X144029697Y-110649368D01*
X144093665Y-110523700D01*
X144135314Y-110436317D01*
X144168847Y-110361570D01*
X144190383Y-110308399D01*
X144196367Y-110287219D01*
X144215632Y-110269747D01*
X144268661Y-110244501D01*
X144348302Y-110214576D01*
X144413325Y-110193345D01*
X144711123Y-110091745D01*
X145011402Y-109971697D01*
X145303365Y-109838187D01*
X145576213Y-109696198D01*
X145819149Y-109550714D01*
X145851261Y-109529618D01*
X146171826Y-109293144D01*
X146456479Y-109034540D01*
X146705034Y-108754390D01*
X146917301Y-108453280D01*
X147093094Y-108131793D01*
X147232224Y-107790514D01*
X147334504Y-107430027D01*
X147399746Y-107050917D01*
X147427763Y-106653769D01*
X147418365Y-106239166D01*
X147371367Y-105807694D01*
X147286579Y-105359936D01*
X147245549Y-105190085D01*
X147182712Y-104963204D01*
X147108800Y-104728252D01*
X147028531Y-104498958D01*
X146946621Y-104289052D01*
X146895580Y-104171370D01*
X146823034Y-104012178D01*
X146939375Y-103934931D01*
X147003958Y-103894097D01*
X147044091Y-103875684D01*
X147069126Y-103876625D01*
X147083227Y-103887754D01*
X147104081Y-103912026D01*
X147147821Y-103963984D01*
X147210335Y-104038707D01*
X147287510Y-104131273D01*
X147375236Y-104236761D01*
X147435536Y-104309407D01*
X147953533Y-104924409D01*
X148463114Y-105510389D01*
X148963369Y-106066460D01*
X149453390Y-106591732D01*
X149932266Y-107085318D01*
X150399088Y-107546329D01*
X150852946Y-107973877D01*
X151292932Y-108367073D01*
X151718136Y-108725030D01*
X152127647Y-109046860D01*
X152520558Y-109331673D01*
X152705824Y-109456841D01*
X153052538Y-109674201D01*
X153385350Y-109860729D01*
X153702998Y-110016076D01*
X154004218Y-110139891D01*
X154287748Y-110231824D01*
X154552325Y-110291525D01*
X154796688Y-110318645D01*
X155019572Y-110312833D01*
X155219716Y-110273738D01*
X155393963Y-110202047D01*
X155492812Y-110148246D01*
X155970737Y-109192035D01*
X156616411Y-107867107D01*
X157222961Y-106553908D01*
X157791226Y-105250199D01*
X158322044Y-103953743D01*
X158816255Y-102662303D01*
X159274698Y-101373642D01*
X159698212Y-100085523D01*
X160087635Y-98795707D01*
X160443808Y-97501959D01*
X160631878Y-96763490D01*
X160919927Y-95537097D01*
X161173448Y-94325526D01*
X161393521Y-93121541D01*
X161581226Y-91917909D01*
X161737643Y-90707393D01*
X161863853Y-89482760D01*
X161960935Y-88236774D01*
X161998598Y-87608907D01*
X162006107Y-87443475D01*
X162012850Y-87241676D01*
X162018791Y-87009470D01*
X162023891Y-86752817D01*
X162028112Y-86477677D01*
X162031416Y-86190009D01*
X162033766Y-85895774D01*
X162035123Y-85600932D01*
X162035450Y-85311442D01*
X162034709Y-85033265D01*
X162032862Y-84772361D01*
X162029870Y-84534689D01*
X162025697Y-84326210D01*
X162020531Y-84158740D01*
X161960594Y-82998301D01*
X161871038Y-81867380D01*
X161751745Y-80765138D01*
X161602598Y-79690734D01*
X161423481Y-78643329D01*
X161214276Y-77622081D01*
X160974868Y-76626150D01*
X160970876Y-76610744D01*
X160857141Y-76188102D01*
X160736005Y-75767459D01*
X160609518Y-75355012D01*
X160479726Y-74956954D01*
X160348678Y-74579480D01*
X160218421Y-74228785D01*
X160091004Y-73911063D01*
X160035560Y-73781459D01*
X159993456Y-73683361D01*
X159959165Y-73599931D01*
X159935528Y-73538361D01*
X159925384Y-73505844D01*
X159925493Y-73502704D01*
X159948200Y-73503750D01*
X160003544Y-73512766D01*
X160082911Y-73528203D01*
X160166617Y-73546055D01*
X160698633Y-73656064D01*
X161209259Y-73745216D01*
X161709302Y-73814678D01*
X162209572Y-73865619D01*
X162720877Y-73899205D01*
X163254026Y-73916602D01*
X163627367Y-73919784D01*
X163917318Y-73918512D01*
X164176225Y-73914422D01*
X164415313Y-73906981D01*
X164645809Y-73895659D01*
X164878939Y-73879926D01*
X165125930Y-73859250D01*
X165341867Y-73838713D01*
X166182616Y-73735525D01*
X167033796Y-73591723D01*
X167894901Y-73407592D01*
X168765427Y-73183413D01*
X169644869Y-72919471D01*
X170532722Y-72616048D01*
X171428481Y-72273427D01*
X172331642Y-71891893D01*
X173241699Y-71471727D01*
X174158149Y-71013213D01*
X175080486Y-70516635D01*
X176008205Y-69982275D01*
X176940802Y-69410417D01*
X177877772Y-68801344D01*
X178818609Y-68155339D01*
X179762810Y-67472686D01*
X180709869Y-66753667D01*
X181659282Y-65998566D01*
X182610543Y-65207665D01*
X183563149Y-64381249D01*
X184516594Y-63519600D01*
X185470373Y-62623002D01*
X185661689Y-62438969D01*
X186025033Y-62084489D01*
X186396655Y-61715010D01*
X186772167Y-61335160D01*
X187147183Y-60949566D01*
X187517315Y-60562857D01*
X187878178Y-60179662D01*
X188225383Y-59804608D01*
X188554544Y-59442322D01*
X188861273Y-59097435D01*
X189141185Y-58774572D01*
X189194634Y-58711789D01*
X189351200Y-58527255D01*
X189411859Y-58563086D01*
%TD*%
%TO.P,D1,1*%
%TO.N,Net-(D1-Pad1)*%
%TA.AperFunction,SMDPad,CuDef*%
G36*
G01*
X150963726Y-116536384D02*
X150094391Y-116303446D01*
G75*
G02*
X149917616Y-115997261I64705J241480D01*
G01*
X150085849Y-115369407D01*
G75*
G02*
X150392034Y-115192632I241480J-64705D01*
G01*
X151261369Y-115425570D01*
G75*
G02*
X151438144Y-115731755I-64705J-241480D01*
G01*
X151269911Y-116359609D01*
G75*
G02*
X150963726Y-116536384I-241480J64705D01*
G01*
G37*
%TD.AperFunction*%
%TO.P,D1,2*%
%TO.N,Net-(D1-Pad2)*%
%TA.AperFunction,SMDPad,CuDef*%
G36*
G01*
X151494306Y-114556236D02*
X150624971Y-114323298D01*
G75*
G02*
X150448196Y-114017113I64705J241480D01*
G01*
X150616429Y-113389259D01*
G75*
G02*
X150922614Y-113212484I241480J-64705D01*
G01*
X151791949Y-113445422D01*
G75*
G02*
X151968724Y-113751607I-64705J-241480D01*
G01*
X151800491Y-114379461D01*
G75*
G02*
X151494306Y-114556236I-241480J64705D01*
G01*
G37*
%TD.AperFunction*%
%TD*%
%TO.P,D2,2*%
%TO.N,Net-(D2-Pad2)*%
%TA.AperFunction,SMDPad,CuDef*%
G36*
G01*
X145279457Y-118233850D02*
X144856931Y-119028505D01*
G75*
G02*
X144518828Y-119131874I-220736J117367D01*
G01*
X143944910Y-118826717D01*
G75*
G02*
X143841541Y-118488614I117367J220736D01*
G01*
X144264067Y-117693959D01*
G75*
G02*
X144602170Y-117590590I220736J-117367D01*
G01*
X145176088Y-117895747D01*
G75*
G02*
X145279457Y-118233850I-117367J-220736D01*
G01*
G37*
%TD.AperFunction*%
%TO.P,D2,1*%
%TO.N,Net-(D1-Pad1)*%
%TA.AperFunction,SMDPad,CuDef*%
G36*
G01*
X147089499Y-119196266D02*
X146666973Y-119990921D01*
G75*
G02*
X146328870Y-120094290I-220736J117367D01*
G01*
X145754952Y-119789133D01*
G75*
G02*
X145651583Y-119451030I117367J220736D01*
G01*
X146074109Y-118656375D01*
G75*
G02*
X146412212Y-118553006I220736J-117367D01*
G01*
X146986130Y-118858163D01*
G75*
G02*
X147089499Y-119196266I-117367J-220736D01*
G01*
G37*
%TD.AperFunction*%
%TD*%
D11*
%TO.N,Net-(D1-Pad1)*%
X146370541Y-119323648D03*
X150677880Y-115864508D03*
%TO.N,Net-(D1-Pad2)*%
X151208460Y-113884360D03*
%TO.N,Net-(D2-Pad2)*%
X144560499Y-118361232D03*
%TD*%
M02*
