%FSLAX45Y45*%
G04 Gerber Fmt 4.5, Leading zero omitted, Abs format (unit mm)*
G04 Created by KiCad (PCBNEW (5.1.7-0-10_14)) date 2020-10-21 09:02:22*
%MOMM*%
%LPD*%
G01*
G04 APERTURE LIST*
%ADD10C,0.200000*%
%ADD11C,0.300000*%
G04 APERTURE END LIST*
D10*
X14436050Y-11816123D02*
X14476050Y-11856123D01*
X14476050Y-11816123D02*
X14436050Y-11856123D01*
X14617054Y-11912365D02*
X14657054Y-11952365D01*
X14657054Y-11912365D02*
X14617054Y-11952365D01*
X15047788Y-11566451D02*
X15087788Y-11606451D01*
X15087788Y-11566451D02*
X15047788Y-11606451D01*
X15100846Y-11368436D02*
X15140846Y-11408436D01*
X15140846Y-11368436D02*
X15100846Y-11408436D01*
D11*
X9381792Y-15244658D02*
X9381792Y-14944658D01*
X9453221Y-14944658D01*
X9496078Y-14958944D01*
X9524650Y-14987515D01*
X9538935Y-15016087D01*
X9553221Y-15073230D01*
X9553221Y-15116087D01*
X9538935Y-15173230D01*
X9524650Y-15201801D01*
X9496078Y-15230373D01*
X9453221Y-15244658D01*
X9381792Y-15244658D01*
X9681792Y-15244658D02*
X9681792Y-15044658D01*
X9681792Y-15101801D02*
X9696078Y-15073230D01*
X9710364Y-15058944D01*
X9738935Y-15044658D01*
X9767507Y-15044658D01*
X9867507Y-15244658D02*
X9867507Y-15044658D01*
X9867507Y-14944658D02*
X9853221Y-14958944D01*
X9867507Y-14973230D01*
X9881792Y-14958944D01*
X9867507Y-14944658D01*
X9867507Y-14973230D01*
X10053221Y-15244658D02*
X10024650Y-15230373D01*
X10010364Y-15201801D01*
X10010364Y-14944658D01*
X10210364Y-15244658D02*
X10181792Y-15230373D01*
X10167507Y-15201801D01*
X10167507Y-14944658D01*
X10553221Y-15244658D02*
X10553221Y-14944658D01*
X10653221Y-15158944D01*
X10753221Y-14944658D01*
X10753221Y-15244658D01*
X11024650Y-15244658D02*
X11024650Y-15087515D01*
X11010364Y-15058944D01*
X10981792Y-15044658D01*
X10924650Y-15044658D01*
X10896078Y-15058944D01*
X11024650Y-15230373D02*
X10996078Y-15244658D01*
X10924650Y-15244658D01*
X10896078Y-15230373D01*
X10881792Y-15201801D01*
X10881792Y-15173230D01*
X10896078Y-15144658D01*
X10924650Y-15130373D01*
X10996078Y-15130373D01*
X11024650Y-15116087D01*
X11167507Y-15044658D02*
X11167507Y-15344658D01*
X11167507Y-15058944D02*
X11196078Y-15044658D01*
X11253221Y-15044658D01*
X11281792Y-15058944D01*
X11296078Y-15073230D01*
X11310364Y-15101801D01*
X11310364Y-15187515D01*
X11296078Y-15216087D01*
X11281792Y-15230373D01*
X11253221Y-15244658D01*
X11196078Y-15244658D01*
X11167507Y-15230373D01*
X11438935Y-15216087D02*
X11453221Y-15230373D01*
X11438935Y-15244658D01*
X11424650Y-15230373D01*
X11438935Y-15216087D01*
X11438935Y-15244658D01*
X11438935Y-15058944D02*
X11453221Y-15073230D01*
X11438935Y-15087515D01*
X11424650Y-15073230D01*
X11438935Y-15058944D01*
X11438935Y-15087515D01*
X9055364Y-15718944D02*
X9095364Y-15758944D01*
X9095364Y-15718944D02*
X9055364Y-15758944D01*
X9438935Y-15574658D02*
X9467507Y-15574658D01*
X9496078Y-15588944D01*
X9510364Y-15603230D01*
X9524650Y-15631801D01*
X9538935Y-15688944D01*
X9538935Y-15760373D01*
X9524650Y-15817515D01*
X9510364Y-15846087D01*
X9496078Y-15860373D01*
X9467507Y-15874658D01*
X9438935Y-15874658D01*
X9410364Y-15860373D01*
X9396078Y-15846087D01*
X9381792Y-15817515D01*
X9367507Y-15760373D01*
X9367507Y-15688944D01*
X9381792Y-15631801D01*
X9396078Y-15603230D01*
X9410364Y-15588944D01*
X9438935Y-15574658D01*
X9667507Y-15846087D02*
X9681792Y-15860373D01*
X9667507Y-15874658D01*
X9653221Y-15860373D01*
X9667507Y-15846087D01*
X9667507Y-15874658D01*
X9938935Y-15674658D02*
X9938935Y-15874658D01*
X9867507Y-15560373D02*
X9796078Y-15774658D01*
X9981792Y-15774658D01*
X10153221Y-15574658D02*
X10181792Y-15574658D01*
X10210364Y-15588944D01*
X10224650Y-15603230D01*
X10238935Y-15631801D01*
X10253221Y-15688944D01*
X10253221Y-15760373D01*
X10238935Y-15817515D01*
X10224650Y-15846087D01*
X10210364Y-15860373D01*
X10181792Y-15874658D01*
X10153221Y-15874658D01*
X10124650Y-15860373D01*
X10110364Y-15846087D01*
X10096078Y-15817515D01*
X10081792Y-15760373D01*
X10081792Y-15688944D01*
X10096078Y-15631801D01*
X10110364Y-15603230D01*
X10124650Y-15588944D01*
X10153221Y-15574658D01*
X10381792Y-15874658D02*
X10381792Y-15674658D01*
X10381792Y-15703230D02*
X10396078Y-15688944D01*
X10424650Y-15674658D01*
X10467507Y-15674658D01*
X10496078Y-15688944D01*
X10510364Y-15717515D01*
X10510364Y-15874658D01*
X10510364Y-15717515D02*
X10524650Y-15688944D01*
X10553221Y-15674658D01*
X10596078Y-15674658D01*
X10624650Y-15688944D01*
X10638935Y-15717515D01*
X10638935Y-15874658D01*
X10781792Y-15874658D02*
X10781792Y-15674658D01*
X10781792Y-15703230D02*
X10796078Y-15688944D01*
X10824650Y-15674658D01*
X10867507Y-15674658D01*
X10896078Y-15688944D01*
X10910364Y-15717515D01*
X10910364Y-15874658D01*
X10910364Y-15717515D02*
X10924650Y-15688944D01*
X10953221Y-15674658D01*
X10996078Y-15674658D01*
X11024650Y-15688944D01*
X11038935Y-15717515D01*
X11038935Y-15874658D01*
X11624650Y-15560373D02*
X11367507Y-15946087D01*
X12010364Y-15574658D02*
X12038935Y-15574658D01*
X12067507Y-15588944D01*
X12081792Y-15603230D01*
X12096078Y-15631801D01*
X12110364Y-15688944D01*
X12110364Y-15760373D01*
X12096078Y-15817515D01*
X12081792Y-15846087D01*
X12067507Y-15860373D01*
X12038935Y-15874658D01*
X12010364Y-15874658D01*
X11981792Y-15860373D01*
X11967507Y-15846087D01*
X11953221Y-15817515D01*
X11938935Y-15760373D01*
X11938935Y-15688944D01*
X11953221Y-15631801D01*
X11967507Y-15603230D01*
X11981792Y-15588944D01*
X12010364Y-15574658D01*
X12238935Y-15846087D02*
X12253221Y-15860373D01*
X12238935Y-15874658D01*
X12224650Y-15860373D01*
X12238935Y-15846087D01*
X12238935Y-15874658D01*
X12438935Y-15574658D02*
X12467507Y-15574658D01*
X12496078Y-15588944D01*
X12510364Y-15603230D01*
X12524650Y-15631801D01*
X12538935Y-15688944D01*
X12538935Y-15760373D01*
X12524650Y-15817515D01*
X12510364Y-15846087D01*
X12496078Y-15860373D01*
X12467507Y-15874658D01*
X12438935Y-15874658D01*
X12410364Y-15860373D01*
X12396078Y-15846087D01*
X12381792Y-15817515D01*
X12367507Y-15760373D01*
X12367507Y-15688944D01*
X12381792Y-15631801D01*
X12396078Y-15603230D01*
X12410364Y-15588944D01*
X12438935Y-15574658D01*
X12824650Y-15874658D02*
X12653221Y-15874658D01*
X12738935Y-15874658D02*
X12738935Y-15574658D01*
X12710364Y-15617515D01*
X12681792Y-15646087D01*
X12653221Y-15660373D01*
X13081792Y-15574658D02*
X13024650Y-15574658D01*
X12996078Y-15588944D01*
X12981792Y-15603230D01*
X12953221Y-15646087D01*
X12938935Y-15703230D01*
X12938935Y-15817515D01*
X12953221Y-15846087D01*
X12967507Y-15860373D01*
X12996078Y-15874658D01*
X13053221Y-15874658D01*
X13081792Y-15860373D01*
X13096078Y-15846087D01*
X13110364Y-15817515D01*
X13110364Y-15746087D01*
X13096078Y-15717515D01*
X13081792Y-15703230D01*
X13053221Y-15688944D01*
X12996078Y-15688944D01*
X12967507Y-15703230D01*
X12953221Y-15717515D01*
X12938935Y-15746087D01*
X13224650Y-15574658D02*
X13224650Y-15631801D01*
X13338935Y-15574658D02*
X13338935Y-15631801D01*
X13781792Y-15988944D02*
X13767507Y-15974658D01*
X13738935Y-15931801D01*
X13724650Y-15903230D01*
X13710364Y-15860373D01*
X13696078Y-15788944D01*
X13696078Y-15731801D01*
X13710364Y-15660373D01*
X13724650Y-15617515D01*
X13738935Y-15588944D01*
X13767507Y-15546087D01*
X13781792Y-15531801D01*
X14024650Y-15674658D02*
X14024650Y-15874658D01*
X13953221Y-15560373D02*
X13881792Y-15774658D01*
X14067507Y-15774658D01*
X14410364Y-15874658D02*
X14410364Y-15574658D01*
X14538935Y-15874658D02*
X14538935Y-15717515D01*
X14524650Y-15688944D01*
X14496078Y-15674658D01*
X14453221Y-15674658D01*
X14424650Y-15688944D01*
X14410364Y-15703230D01*
X14724650Y-15874658D02*
X14696078Y-15860373D01*
X14681792Y-15846087D01*
X14667507Y-15817515D01*
X14667507Y-15731801D01*
X14681792Y-15703230D01*
X14696078Y-15688944D01*
X14724650Y-15674658D01*
X14767507Y-15674658D01*
X14796078Y-15688944D01*
X14810364Y-15703230D01*
X14824650Y-15731801D01*
X14824650Y-15817515D01*
X14810364Y-15846087D01*
X14796078Y-15860373D01*
X14767507Y-15874658D01*
X14724650Y-15874658D01*
X14996078Y-15874658D02*
X14967507Y-15860373D01*
X14953221Y-15831801D01*
X14953221Y-15574658D01*
X15224650Y-15860373D02*
X15196078Y-15874658D01*
X15138935Y-15874658D01*
X15110364Y-15860373D01*
X15096078Y-15831801D01*
X15096078Y-15717515D01*
X15110364Y-15688944D01*
X15138935Y-15674658D01*
X15196078Y-15674658D01*
X15224650Y-15688944D01*
X15238935Y-15717515D01*
X15238935Y-15746087D01*
X15096078Y-15774658D01*
X15353221Y-15860373D02*
X15381792Y-15874658D01*
X15438935Y-15874658D01*
X15467507Y-15860373D01*
X15481792Y-15831801D01*
X15481792Y-15817515D01*
X15467507Y-15788944D01*
X15438935Y-15774658D01*
X15396078Y-15774658D01*
X15367507Y-15760373D01*
X15353221Y-15731801D01*
X15353221Y-15717515D01*
X15367507Y-15688944D01*
X15396078Y-15674658D01*
X15438935Y-15674658D01*
X15467507Y-15688944D01*
X15581792Y-15988944D02*
X15596078Y-15974658D01*
X15624650Y-15931801D01*
X15638935Y-15903230D01*
X15653221Y-15860373D01*
X15667507Y-15788944D01*
X15667507Y-15731801D01*
X15653221Y-15660373D01*
X15638935Y-15617515D01*
X15624650Y-15588944D01*
X15596078Y-15546087D01*
X15581792Y-15531801D01*
M02*
